<?xml version="1.0" ?><svg height="24" viewBox="0 0 24 24" width="24" xmlns="http://www.w3.org/2000/svg"><path d="M513,326 L528,326 L528,327 C528,331.970563 523.970563,336 519,336 L504,336 L504,335 C504,330.029437 508.029437,326 513,326 Z M513,328 C509.473528,328 506.556119,330.607706 506.070889,334 L519,334 C522.526472,334 525.443881,331.392294 525.929111,328 L513,328 Z M513,312 L528,312 L528,313 C528,317.970563 523.970563,322 519,322 L504,322 L504,321 C504,316.029437 508.029437,312 513,312 Z M513,314 C509.473528,314 506.556119,316.607706 506.070889,320 L519,320 C522.526472,320 525.443881,317.392294 525.929111,314 L513,314 Z" fill-rule="evenodd" transform="translate(-504 -312)"/></svg>